<svg width="205" height="207" viewBox="0 0 205 207" fill="none" xmlns="http://www.w3.org/2000/svg">
<path d="M2.19903 120.021C2.08874 120.524 2.02215 121.037 2 121.552C2.02864 123.658 2.47078 125.739 3.30132 127.675C9.34862 144.394 17.6771 166.577 28.1641 181.412C35.8528 192.379 47.4024 200.035 60.4981 202.846C81.1814 207.668 87.642 196.951 102.86 186.25C120.757 173.666 136.709 173.451 158.403 169.991C178.551 166.776 193.386 154.176 199.111 135.759C205.878 114.019 201.637 82.0375 192.697 61.048C183.756 40.0585 172.274 17.5993 149.508 5.97926C113.776 -12.2392 77.4611 36.92 60.2684 56.1489C52.1543 65.2122 46.9337 76.7556 38.0389 85.2372C32.4049 90.6568 25.3166 94.4229 19.5448 99.8119C14.3089 104.742 3.85246 112.718 2.19903 120.021Z" stroke="#03A9F4" stroke-width="4" stroke-miterlimit="10"/>
<path d="M31.8537 125.456C31.9446 126.937 32.3188 128.387 32.956 129.727C37.7938 141.439 44.0708 156.289 51.6184 166.041C57.2811 173.246 65.4247 178.081 74.4604 179.606C88.6983 182.407 93.4137 175.013 104.176 167.572C118.108 157.973 130.769 157.315 146.706 153.977C161.572 150.824 172.289 141.01 176.285 126.022C180.724 109.411 177.341 86.4466 170.268 71.3054C163.195 56.1642 153.887 40.6096 137 32.9242C121.078 25.6062 104.942 35.3584 91.7602 47.7286C83.5237 55.4906 76.3435 64.3549 71.1382 70.2184C65.1827 76.9241 61.1563 85.3137 54.7263 91.6519C50.608 95.7243 45.5405 98.6637 41.4069 102.675C37.2733 106.686 30.0165 112.58 28.7918 117.648C28.2712 120.036 29.9859 123.879 31.8537 125.456Z" stroke="#03A9F4" stroke-width="3.33" stroke-miterlimit="10"/>
<path d="M61.7228 129.375C61.9006 130.205 62.2219 130.997 62.672 131.717C66.331 138.484 70.5258 146.016 75.1493 150.67C78.7797 154.101 83.5112 156.131 88.4993 156.396C96.246 157.192 99.2161 153.074 105.57 148.895C115.521 142.311 124.89 141.24 135.087 137.994C144.64 134.932 151.315 127.936 153.458 116.408C155.402 104.54 153.429 92.363 147.839 81.716C142.512 72.2546 135.485 63.6812 124.508 59.8691C114.311 56.3479 103.947 61.9972 95.3274 69.9275C90.6383 74.4823 86.1924 79.2809 82.008 84.3033C78.2113 88.6206 75.3637 93.8565 71.4138 98.0819C68.7958 100.761 65.7339 102.874 63.2844 105.507C60.3909 108.569 56.1654 112.473 55.3846 115.321C54.466 119.531 57.9413 126.726 61.7228 129.375Z" stroke="#03A9F4" stroke-width="2.67" stroke-miterlimit="10"/>
<path d="M81.9773 112.963C80.6453 119.087 85.8965 129.559 91.5917 133.294C98.9097 138.101 100.364 133.922 106.901 130.232C118.797 123.481 130.31 123.343 130.692 106.747C131.121 88.2378 112.321 80.8433 98.9556 92.0959C92.8471 97.2399 83.0949 110.988 81.9773 112.963Z" stroke="#03A9F4" stroke-width="2" stroke-miterlimit="10"/>
</svg>
