<svg width="25" height="24" viewBox="0 0 25 24" fill="none" xmlns="http://www.w3.org/2000/svg">
<g clip-path="url(#clip0_1_25)">
<path d="M24.3621 4.54561C24.2025 4.37113 23.9457 4.32579 23.736 4.43501C23.5205 4.53294 23.2975 4.61355 23.0692 4.67606C23.4253 4.22038 23.6942 3.70282 23.8623 3.14941C23.9363 2.87095 23.7705 2.58519 23.492 2.51118C23.3433 2.47166 23.1848 2.49979 23.0588 2.58803C22.2655 3.01734 21.4222 3.34717 20.5481 3.56997C18.7488 1.87159 16.0078 1.65989 13.9689 3.06181C12.3983 4.12373 11.5337 5.95907 11.715 7.84621C8.3104 7.5561 5.17801 5.86902 3.06229 3.18595C2.95361 3.05447 2.78916 2.98208 2.61879 2.99083C2.44603 3.0012 2.2897 3.09658 2.20141 3.24543C1.48336 4.41921 1.27532 5.83512 1.6254 7.16582C1.80491 7.84954 2.11263 8.49295 2.53221 9.06187C2.34321 8.96932 2.16536 8.85555 2.00214 8.72275C1.77835 8.54123 1.4498 8.57547 1.26823 8.79925C1.19291 8.89214 1.15172 9.00806 1.15167 9.12766C1.18268 11.0581 2.24274 12.825 3.93154 13.7608C3.7037 13.7328 3.47879 13.6846 3.25951 13.6168C2.98359 13.5338 2.6926 13.6901 2.6096 13.9661C2.5734 14.0864 2.58186 14.2159 2.63342 14.3305C3.36639 15.9724 4.83175 17.1716 6.58619 17.5653C4.91466 18.5084 2.9899 18.9046 1.08177 18.6986C0.834367 18.667 0.599972 18.8174 0.525574 19.0554C0.448877 19.2917 0.549248 19.5491 0.765594 19.6711C3.10196 21.0593 5.75979 21.8145 8.477 21.8625C11.0838 21.8529 13.6298 21.0743 15.7961 19.6242C19.9314 16.8798 22.5089 11.9524 22.1499 7.54363C23.0341 6.88912 23.8012 6.08967 24.4185 5.17909C24.5454 4.97952 24.5222 4.71959 24.3621 4.54561Z" fill="#03A9F4"/>
</g>
<defs>
<clipPath id="clip0_1_25">
<rect width="24" height="24" fill="white" transform="translate(0.5)"/>
</clipPath>
</defs>
</svg>
